<svg width="172" height="35" viewBox="0 0 172 35" fill="none" xmlns="http://www.w3.org/2000/svg">
<path d="M0 0.868737H6.89737C12.6189 1.73953 19.488 -1.53414 23.9327 6.97742C25.953 12.2153 22.3164 15.489 19.488 16.1437C21.5083 15.489 23.5286 17.4532 23.9327 19.4174C25.1449 24.6553 22.3164 29.2384 19.488 31.8573C15.4474 34.4763 11.0027 31.8573 6.63878 32.6299L5.74579 32.5972H4.87705H4.06892H3.28908H2.56985L1.37786 32.5579L0.303048 32.5252C0.303048 32.5252 0.25052 31.9948 0.202032 31.0979C0.177788 30.6461 0.153547 30.1092 0.129303 29.4938C0.10506 28.8783 0.0929396 28.1843 0.0808177 27.4379C0.0686958 26.6915 0.0808187 25.8796 0.0565748 25.0285C0.0565748 24.5963 0.0565748 24.1642 0.0565748 23.719C0.0565748 23.2738 0.0565748 22.8155 0.0565748 22.3506C0.0565748 21.8857 0.0565748 21.4209 0.0565748 20.9429C0.0565748 20.465 0.0565748 19.987 0.0565748 19.509C0.0565748 19.0311 0.0565748 18.54 0.0565748 18.0555V0.868737H0ZM20.3769 9.59636C17.8717 -0.879404 9.38641 5.01321 4.21439 3.8085H2.51732V14.7164H5.64882C10.1945 14.1795 14.6392 16.1437 19.0839 13.4593C19.5125 13.0975 19.8646 12.5365 20.095 11.8482C20.3254 11.1599 20.4236 10.3757 20.3769 9.59636ZM20.2396 24.1708C19.0839 12.87 8.98234 18.7626 3.67294 17.6234H2.51732V18.4811C2.51732 19.018 2.51732 19.7906 2.51732 20.6352C2.51732 21.0673 2.51732 21.5322 2.51732 22.0036C2.51732 22.475 2.51732 22.966 2.51732 23.4571C2.51732 23.9481 2.51732 24.4327 2.51732 24.9106C2.51732 25.3886 2.51732 25.8534 2.53752 26.2921C2.53752 27.1694 2.56177 27.942 2.56985 28.492C2.57793 29.042 2.56985 29.3694 2.56985 29.3694H3.73759H4.99423H5.73367C10.1945 27.9289 15.4474 33.1668 19.4516 26.5343C19.8053 25.8356 20.0728 25.0332 20.2396 24.1708ZM39.7356 1.15028C46.9643 3.70375 45.7521 23.3458 50.1968 32.5121C49.3887 32.5121 48.1765 33.1668 47.7725 32.5121C46.5603 29.8931 46.1562 24.0005 45.3481 24.0005C40.0952 20.7269 35.2465 24.0005 31.2058 33.1668C30.8018 33.8216 29.5896 33.1668 28.7815 33.1668C33.6302 25.31 39.2871 17.4532 39.6508 4.84953C39.7154 2.58414 39.7356 1.15028 39.7356 1.15028ZM38.184 20.1376C40.4993 20.0721 42.5196 20.0721 44.944 20.0721C44.944 14.1795 42.9237 8.94162 41.3074 3.70374C40.9034 8.94162 40.0952 14.1795 38.8224 18.4353C38.4426 19.4829 38.184 20.1376 38.184 20.1376ZM57.3164 0.842552C58.2781 1.0848 59.4903 0.430066 59.4903 1.0848C60.7025 5.01321 59.8944 12.2153 61.1066 12.87C67.1675 18.7626 73.6325 8.94162 78.0772 1.0848C79.2894 -0.879405 80.5016 1.73954 81.7138 0.430066C78.8854 6.32268 75.6529 11.5606 71.2082 14.8342C76.0569 18.1079 80.9057 23.3458 82.5219 31.8573C81.3097 32.5121 79.6935 31.8573 79.2894 30.5479C74.4407 21.3816 67.1675 12.87 61.1066 18.7626C59.0862 20.7269 60.7025 34.4763 58.6822 31.2026C55.4497 26.6195 57.8741 16.1437 57.47 7.54703C57.373 3.63826 57.3164 0.842552 57.3164 0.842552ZM90.9709 32.1389C97.8764 22.0363 90.6032 8.94162 85.7544 0.430066C91.4113 1.0848 93.0276 13.5248 95.856 20.0721C97.4723 13.5248 100.301 6.97742 102.535 0.868737H105.069C105.069 0.868737 104.358 2.57105 103.283 5.17689C99.8967 14.1795 96.6642 23.3458 92.9832 32.1651L90.9709 32.1389ZM119.255 32.0865C122.12 29.2384 124.949 25.9647 127.777 23.3458C122.12 15.489 115.251 10.2511 109.998 1.0848C117.271 3.04901 123.332 17.4532 130.606 18.1079C133.838 18.7626 133.838 7.63215 133.03 1.0848C133.838 1.0848 135.05 0.430066 135.05 1.0848C136.666 6.97742 137.475 13.5248 135.05 18.7626C131.818 25.31 127.373 27.9289 123.07 32.0603L119.255 32.0865ZM153.294 27.5754C152.021 24.0005 151.213 20.7269 149.916 17.2568C149.31 15.5675 148.704 13.9111 148.049 12.3135C147.394 10.716 146.748 9.18387 146.069 7.73036C145.52 6.57148 144.95 5.44534 144.344 4.35193C144.808 5.75741 145.213 7.21204 145.556 8.70592C147.576 16.7984 147.576 25.9647 145.152 33.8216C144.748 34.4763 143.536 33.1668 143.536 32.5121C145.556 25.9647 146.364 18.1079 144.521 11.4165C144.154 9.63564 143.742 7.86786 143.309 6.13936C142.877 4.41086 142.392 2.72164 141.919 1.0848C142.933 1.18221 143.92 1.65479 144.804 2.46629C145.677 3.29966 146.46 4.35657 147.124 5.59593C147.843 7.08217 148.51 8.65353 149.144 10.2576C151.213 14.8342 152.425 20.7269 155.253 24.6553C158.89 18.1079 159.294 8.94162 161.314 1.0848C161.718 -0.22467 163.335 -0.22467 164.143 0.430066C168.992 8.94162 173.84 22.0363 168.992 33.1668C168.588 33.1668 167.779 32.5121 166.971 32.5121C169.396 22.0363 165.759 12.2153 162.931 3.70374C162.931 12.87 160.102 21.3816 156.429 27.6016L153.294 27.5754Z" fill="black"/>
</svg>
