<svg width="154" height="162" viewBox="0 0 154 162" fill="none" xmlns="http://www.w3.org/2000/svg">
<g opacity="0.25">
<path fill-rule="evenodd" clip-rule="evenodd" d="M45.5502 156.356L40.5303 142.867C39.9554 141.322 41.042 138.383 42.9926 136.207L58.1942 119.25C59.3518 117.958 60.2554 116.332 60.6272 114.87L64.3924 100.066C64.4555 99.8182 64.582 99.5475 64.7523 99.2961C65.1423 98.7204 65.6725 98.3714 65.9886 98.4823L79.0977 103.08C79.9692 103.385 80.2836 104.504 79.9318 106.048L78.1308 113.95C77.8848 115.029 77.3323 116.228 76.573 117.332L51.3662 153.966C49.2118 157.097 46.275 158.304 45.5502 156.356ZM59.2385 138.201C59.1638 138.675 58.7691 139.258 58.3569 139.503C57.9447 139.748 57.6712 139.563 57.7459 139.089L58.117 136.736L56.0697 137.953C55.6575 138.198 55.384 138.013 55.4587 137.539C55.5334 137.066 55.9281 136.483 56.3402 136.238L58.3875 135.02L58.7586 132.667C58.8333 132.194 59.228 131.611 59.6402 131.366C60.0524 131.121 60.326 131.306 60.2513 131.78L59.8801 134.133L61.928 132.915C62.3401 132.67 62.6137 132.855 62.539 133.329C62.4643 133.803 62.0696 134.385 61.6574 134.631L59.6096 135.848L59.2385 138.201ZM61.0259 123.347L66.1611 121.799C66.5399 121.685 66.9919 121.17 67.1708 120.649C67.3496 120.128 67.1875 119.799 66.8087 119.913L61.6735 121.46C61.2947 121.574 60.8426 122.089 60.6638 122.61C60.485 123.131 60.6471 123.461 61.0259 123.347ZM53.4607 134.288C53.386 134.761 52.9913 135.344 52.5791 135.589C52.167 135.834 51.8934 135.649 51.9681 135.175L52.3392 132.822L50.2919 134.039C49.8797 134.285 49.6062 134.099 49.6809 133.626C49.7556 133.152 50.1503 132.569 50.5625 132.324L52.6097 131.107L52.9809 128.754C53.0556 128.28 53.4503 127.697 53.8624 127.452C54.2746 127.207 54.5482 127.392 54.4735 127.866L54.1024 130.219L56.1502 129.001C56.5624 128.756 56.8359 128.942 56.7612 129.415C56.6865 129.889 56.2918 130.472 55.8796 130.717L53.8318 131.935L53.4607 134.288Z" fill="url(#paint0_linear_22_2831)"/>
<path d="M66.1611 121.799L61.0259 123.347C60.6471 123.461 60.485 123.131 60.6638 122.61C60.8426 122.089 61.2947 121.574 61.6735 121.46L66.8087 119.913C67.1875 119.799 67.3496 120.128 67.1708 120.649C66.9919 121.17 66.5399 121.685 66.1611 121.799Z" fill="black"/>
<path d="M59.2385 138.201C59.1638 138.675 58.7691 139.258 58.3569 139.503C57.9447 139.748 57.6712 139.563 57.7459 139.089L58.117 136.736L56.0697 137.953C55.6575 138.198 55.384 138.013 55.4587 137.539C55.5334 137.066 55.9281 136.483 56.3402 136.238L58.3875 135.02L58.7586 132.667C58.8333 132.194 59.228 131.611 59.6402 131.366C60.0524 131.121 60.326 131.306 60.2513 131.78L59.8801 134.133L61.928 132.915C62.3401 132.67 62.6137 132.855 62.539 133.329C62.4643 133.803 62.0696 134.385 61.6574 134.631L59.6096 135.848L59.2385 138.201Z" fill="black"/>
<path d="M53.4607 134.288C53.386 134.761 52.9913 135.344 52.5791 135.589C52.167 135.834 51.8934 135.649 51.9681 135.175L52.3392 132.822L50.2919 134.039C49.8797 134.285 49.6062 134.099 49.6809 133.626C49.7556 133.152 50.1503 132.569 50.5625 132.324L52.6097 131.107L52.9809 128.754C53.0556 128.28 53.4503 127.697 53.8624 127.452C54.2746 127.207 54.5482 127.392 54.4735 127.866L54.1024 130.219L56.1502 129.001C56.5624 128.756 56.8359 128.942 56.7612 129.415C56.6865 129.889 56.2918 130.472 55.8796 130.717L53.8318 131.935L53.4607 134.288Z" fill="black"/>
</g>
<g opacity="0.5">
<path fill-rule="evenodd" clip-rule="evenodd" d="M109.635 56.005C114.291 60.3684 122.286 67.8603 126.788 39.3938C127.335 35.9351 133.027 30.3271 138.522 24.9138C146.857 16.7019 154.738 8.9379 143.511 9.80467C142.754 9.32315 142.209 7.98733 141.608 6.51171C139.141 0.464552 135.716 -7.93018 112.812 30.5043C111.251 32.9587 109.061 35.7788 106.861 38.6107C99.5252 48.057 92.0866 57.6354 107.544 54.2173C108.116 54.5811 108.825 55.2457 109.635 56.005Z" fill="url(#paint1_linear_22_2831)"/>
<path d="M119.506 39.5885C117.255 43.1266 114.848 45.6243 114.13 45.1672C113.411 44.7102 114.653 41.4715 116.904 37.9334C119.154 34.3953 121.561 31.8977 122.279 32.3547C122.998 32.8118 121.756 36.0505 119.506 39.5885Z" fill="black"/>
<path d="M126.151 22.8196C124.401 25.5715 122.166 27.2836 121.16 26.6437C120.154 26.0038 120.758 23.2543 122.508 20.5025C124.258 17.7507 126.493 16.0386 127.499 16.6784C128.505 17.3183 127.901 20.0678 126.151 22.8196Z" fill="black"/>
<path d="M132.266 26.7092C130.516 29.461 128.281 31.1731 127.275 30.5332C126.269 29.8934 126.873 27.1438 128.623 24.392C130.373 21.6402 132.608 19.9281 133.614 20.568C134.62 21.2078 134.016 23.9573 132.266 26.7092Z" fill="black"/>
</g>
<g opacity="0.75">
<path d="M65.6793 53.5064C86.7229 65.4861 41.9689 44.5848 58.2084 54.6519C66.8729 60.4939 43.9879 48.6882 61.7083 60.8331C55.2454 59.4598 40.9776 53.2585 38.3692 50.0601C36.2983 47.5209 31.7392 45.8928 26.9735 44.4372C7.03282 47.7498 9.58636 46.9929 13.3315 32.8035C15.2953 25.3632 -7.81957 2.87767 4.35465 11.9276C29.2992 30.4705 34.3354 19.5538 35.0995 25.9256C35.8637 32.2974 31.1701 35.7161 38.4646 37.3052C45.7592 38.8942 60.3294 45.0324 62.5577 46.1885C64.8876 47.3973 65.8132 49.1686 66.2187 50.3274C58.8587 46.4661 62.0667 50.0341 64.254 52.1698C65.031 52.9285 65.6793 53.5064 65.6793 53.5064Z" fill="url(#paint2_linear_22_2831)"/>
<path d="M28.8504 38.188C31.6168 40.1353 33.4959 42.2303 33.0475 42.8674C32.5991 43.5045 29.9929 42.4423 27.2265 40.4951C24.4601 38.5478 22.581 36.4527 23.0294 35.8157C23.4778 35.1786 26.084 36.2407 28.8504 38.188Z" fill="black"/>
<path d="M31.2672 34.7546C34.0336 36.7019 35.9127 38.7969 35.4643 39.434C35.0158 40.0711 32.4097 39.009 29.6432 37.0617C26.8768 35.1144 24.9977 33.0194 25.4462 32.3823C25.8946 31.7452 28.5008 32.8073 31.2672 34.7546Z" fill="black"/>
<path d="M20.8671 36.0722C20.5353 35.9535 20.195 35.6586 20.1071 35.4135L19.0582 32.4913C18.9702 32.2462 19.1679 32.1437 19.4997 32.2624C19.8315 32.3811 20.1718 32.676 20.2597 32.9211L21.3086 35.8433C21.3966 36.0884 21.1989 36.1909 20.8671 36.0722Z" fill="black"/>
<path d="M24.9254 30.3068C24.7018 30.0345 24.3093 29.8136 24.049 29.8135L20.9442 29.8119C20.6838 29.8118 20.654 30.0325 20.8777 30.3048C21.1013 30.5771 21.4938 30.7979 21.7541 30.7981L24.8589 30.7996C25.1193 30.7997 25.1491 30.5791 24.9254 30.3068Z" fill="black"/>
</g>
<circle cx="89.6554" cy="75.7478" r="47.1801" fill="white"/>
<defs>
<linearGradient id="paint0_linear_22_2831" x1="40.292" y1="153.15" x2="75.7701" y2="100.774" gradientUnits="userSpaceOnUse">
<stop stop-color="#00FF00"/>
<stop offset="0.0001" stop-color="white"/>
</linearGradient>
<linearGradient id="paint1_linear_22_2831" x1="141.818" y1="3.79178" x2="106.73" y2="58.9567" gradientUnits="userSpaceOnUse">
<stop stop-color="#00FF00"/>
<stop offset="0.385417" stop-color="white"/>
</linearGradient>
<linearGradient id="paint2_linear_22_2831" x1="-3.54598" y1="16.0718" x2="65.9771" y2="65.0091" gradientUnits="userSpaceOnUse">
<stop offset="0.0979163" stop-color="#00FF00"/>
<stop offset="0.540625" stop-color="white"/>
</linearGradient>
</defs>
</svg>
